<?xml version="1.0"?>
<svg xmlns="http://www.w3.org/2000/svg" xmlns:xlink="http://www.w3.org/1999/xlink" xmlns:svgjs="http://svgjs.com/svgjs" version="1.1" width="512" height="512" x="0" y="0" viewBox="0 0 487.835 487.835" style="enable-background:new 0 0 512 512" xml:space="preserve" class=""><g><g xmlns="http://www.w3.org/2000/svg" id="XMLID_4143_"><g id="XMLID_182_"><path id="XMLID_295_" d="m246.697 326.895-47.089 17.683c-6.561 3.218-12.472 7.318-17.663 12.088-25.923-45.463-61.928-144.384-71.297-195.881 1.121.05 2.244.083 3.371.083 5.949 0 11.962-.724 17.925-2.196l47.441-16.715-51.668-141.957-33.168 12.073-.021-.058-13.926 5.595c-31.052 15.227-47.759 50.036-40.554 83.627-3.396 12.755-18.902 83.259 19.593 189.023 10.981 30.17 24.544 58.053 40.313 82.874l12.661-8.043c-15.188-23.907-28.269-50.811-38.879-79.962-20.847-57.276-24.845-103.564-24.528-132.309.111-10.103.749-18.806 1.561-25.959 10.228 15.514 26.281 26.975 44.268 31.627 8.545 53.831 48.364 163.232 76.419 209.96-6.284 8.81-10.514 18.791-12.585 29.188-1.547 7.667-1.874 15.59-.997 23.362.005.04.006.081.011.121-10.025-9.528-23.25-23.857-37.135-43.796l-12.31 8.572c26.8 38.482 51.089 57.086 57.677 61.741 13.215 24.981 39.355 40.2 66.907 40.2 5.949 0 11.962-.724 17.925-2.196l.151.416 14.095-5.13 33.168-12.073zm-127.945-307.668 41.407 113.765-19.073 6.941-41.407-113.765zm-32.985 12.575 41.014 112.686c-4.265.934-8.55 1.384-12.798 1.384-26.168 0-50.376-17.743-57.992-42.814-.044-.144-.081-.288-.124-.432-.26-.879-.505-1.772-.731-2.678-6.684-26.961 6.109-55.294 30.631-68.146zm151.965 314.319 41.407 113.766-19.073 6.941-41.407-113.766zm-59.204 92.835c-5.745-11.732-7.541-25.555-4.94-38.497 3.556-17.472 14.732-33.066 31.186-41.689l41.014 112.686c-27.044 5.916-55.048-7.56-67.26-32.5z" fill="#f37b83" data-original="#000000" style="" class=""/><path id="XMLID_471_" d="m428.355 220.949-11.165 10.018c13.896 15.488 21.548 35.49 21.548 56.319 0 46.521-37.848 84.368-84.369 84.368s-84.369-37.848-84.369-84.368c0-36.861 23.771-68.255 56.78-79.713 5.651 27.824 30.3 48.831 59.767 48.831v-15c-22.451 0-41.183-16.176-45.185-37.482 4.241-.659 8.584-1.005 13.007-1.005 19.399 0 37.635 6.4 52.736 18.509l9.384-11.703c-17.538-14.062-39.599-21.806-62.12-21.806-54.792 0-99.369 44.577-99.369 99.369s44.577 99.368 99.369 99.368 99.369-44.576 99.369-99.368c0-24.532-9.014-48.091-25.383-66.337z" fill="#f37b83" data-original="#000000" style="" class=""/><path id="XMLID_472_" d="m354.37 340.005c12.262 0 23.928-4.645 32.849-13.078l-10.305-10.9c-6.125 5.79-14.131 8.979-22.544 8.979s-16.42-3.188-22.544-8.979l-10.305 10.9c8.921 8.433 20.587 13.078 32.849 13.078z" fill="#f37b83" data-original="#000000" style="" class=""/><path id="XMLID_473_" d="m324.37 278.417h15v15h-15z" fill="#f37b83" data-original="#000000" style="" class=""/><path id="XMLID_474_" d="m369.37 278.417h15v15h-15z" fill="#f37b83" data-original="#000000" style="" class=""/><path id="XMLID_477_" d="m279.37 191.648 65.314-65.313c6.74-6.74 10.452-15.701 10.452-25.233s-3.711-18.493-10.452-25.233c-6.74-6.739-15.701-10.451-25.233-10.451s-18.493 3.712-25.232 10.451l-14.849 14.85-14.849-14.849c-6.74-6.74-15.701-10.452-25.232-10.452s-18.493 3.712-25.233 10.451c-13.914 13.914-13.914 36.553 0 50.467zm-54.708-105.172c3.907-3.907 9.101-6.059 14.626-6.059s10.719 2.151 14.626 6.059l25.455 25.455 25.455-25.455v-.001c3.907-3.906 9.101-6.058 14.626-6.058s10.72 2.151 14.626 6.059c8.065 8.064 8.065 21.188 0 29.252l-54.708 54.708-54.708-54.708c-3.907-3.906-6.058-9.101-6.058-14.626s2.153-10.72 6.06-14.626z" fill="#f37b83" data-original="#000000" style="" class=""/></g></g></g></svg>
