<?xml version="1.0"?>
<svg xmlns="http://www.w3.org/2000/svg" xmlns:xlink="http://www.w3.org/1999/xlink" xmlns:svgjs="http://svgjs.com/svgjs" version="1.1" width="512" height="512" x="0" y="0" viewBox="0 0 74 74" style="enable-background:new 0 0 512 512" xml:space="preserve" class=""><g><g xmlns="http://www.w3.org/2000/svg" id="Numbers"><text fill="rgb(0,0,0)" font-family="ArialMT, Arial" font-size="18" transform="translate(31.995 -141.877)" svgjs:data="{&quot;leading&quot;:&quot;1.3&quot;}">8<tspan x="-5.005" y="124" svgjs:data="{&quot;leading&quot;:&quot;1.3&quot;}">18</tspan><tspan x="-5.005" y="248" svgjs:data="{&quot;leading&quot;:&quot;1.3&quot;}">28</tspan><tspan x="-5.005" y="372" svgjs:data="{&quot;leading&quot;:&quot;1.3&quot;}">38</tspan><tspan x="-5.005" y="496" svgjs:data="{&quot;leading&quot;:&quot;1.3&quot;}">48</tspan><tspan x="-5.005" y="620" svgjs:data="{&quot;leading&quot;:&quot;1.3&quot;}">58</tspan><tspan x="-5.005" y="744" svgjs:data="{&quot;leading&quot;:&quot;1.3&quot;}">68</tspan><tspan x="-5.005" y="868" svgjs:data="{&quot;leading&quot;:&quot;1.3&quot;}">78</tspan><tspan x="-5.005" y="992" svgjs:data="{&quot;leading&quot;:&quot;1.3&quot;}">88</tspan><tspan x="-5.005" y="1116" svgjs:data="{&quot;leading&quot;:&quot;1.3&quot;}">98</tspan><tspan x="-10.011" y="1240" svgjs:data="{&quot;leading&quot;:&quot;1.3&quot;}">108</tspan><tspan letter-spacing="-.074em" x="-9.343" y="1364" svgjs:data="{&quot;leading&quot;:&quot;1.3&quot;}">1</tspan><tspan x="-.668" y="1364" svgjs:data="{&quot;leading&quot;:&quot;1.3&quot;}">18</tspan><tspan x="-10.011" y="1488" svgjs:data="{&quot;leading&quot;:&quot;1.3&quot;}">128</tspan><tspan x="-10.011" y="1612" svgjs:data="{&quot;leading&quot;:&quot;1.3&quot;}">138</tspan><tspan x="-10.011" y="1736" svgjs:data="{&quot;leading&quot;:&quot;1.3&quot;}">148</tspan><tspan x="-10.011" y="1860" svgjs:data="{&quot;leading&quot;:&quot;1.3&quot;}">158</tspan><tspan x="-10.011" y="1984" svgjs:data="{&quot;leading&quot;:&quot;1.3&quot;}">168</tspan><tspan x="-10.011" y="2108" svgjs:data="{&quot;leading&quot;:&quot;1.3&quot;}">178</tspan><tspan x="-10.011" y="2232" svgjs:data="{&quot;leading&quot;:&quot;1.3&quot;}">188</tspan><tspan x="-10.011" y="2356" svgjs:data="{&quot;leading&quot;:&quot;1.3&quot;}">198</tspan><tspan x="-10.011" y="2480" svgjs:data="{&quot;leading&quot;:&quot;1.3&quot;}">208</tspan><tspan x="-10.011" y="2604" svgjs:data="{&quot;leading&quot;:&quot;1.3&quot;}">218</tspan><tspan x="-10.011" y="2728" svgjs:data="{&quot;leading&quot;:&quot;1.3&quot;}">228</tspan><tspan x="-10.011" y="2852" svgjs:data="{&quot;leading&quot;:&quot;1.3&quot;}">238</tspan><tspan x="-10.011" y="2976" svgjs:data="{&quot;leading&quot;:&quot;1.3&quot;}">248</tspan><tspan x="-10.011" y="3100" svgjs:data="{&quot;leading&quot;:&quot;1.3&quot;}">258</tspan><tspan x="-10.011" y="3224" svgjs:data="{&quot;leading&quot;:&quot;1.3&quot;}">268</tspan><tspan x="-10.011" y="3348" svgjs:data="{&quot;leading&quot;:&quot;1.3&quot;}">278</tspan><tspan x="-10.011" y="3472" svgjs:data="{&quot;leading&quot;:&quot;1.3&quot;}">288</tspan><tspan x="-10.011" y="3596" svgjs:data="{&quot;leading&quot;:&quot;1.3&quot;}">298</tspan></text></g><g xmlns="http://www.w3.org/2000/svg" id="Icons"><path d="m60.92 61.81a1 1 0 0 1 -.687-1.727 24.924 24.924 0 0 0 1.961-2.077 1 1 0 0 1 1.532 1.287 27.022 27.022 0 0 1 -2.12 2.244 1 1 0 0 1 -.686.273z" fill="#f37b83" data-original="#000000" style="" class=""/><path d="m37.8 71.2a33.945 33.945 0 0 1 -18.846-5.667l-15.854 1.672a1.024 1.024 0 0 1 -.874-.357 1 1 0 0 1 -.188-.926l4.52-15.042a33.659 33.659 0 0 1 -2.958-13.88 34.2 34.2 0 1 1 64.279 16.267 1 1 0 1 1 -1.758-.954 32.2 32.2 0 1 0 -60.521-15.313 31.67 31.67 0 0 0 2.928 13.38 1 1 0 0 1 .092.42 1.178 1.178 0 0 1 -.042.307l-4.188 13.951 14.715-1.553a1 1 0 0 1 .666.168 32.248 32.248 0 0 0 25.506 4.654 1 1 0 0 1 .465 1.945 34.181 34.181 0 0 1 -7.942.928z" fill="#f37b83" data-original="#000000" style="" class=""/><path d="m52.751 67.64a1 1 0 0 1 -.448-1.894c.831-.416 1.688-.9 2.548-1.434a1 1 0 1 1 1.058 1.7c-.913.569-1.825 1.082-2.712 1.526a1 1 0 0 1 -.446.102z" fill="#f37b83" data-original="#000000" style="" class=""/><path d="m49.07 55.812c-5.161 0-12.371-3.888-19.281-10.8-9.623-9.622-13.389-19.829-8.947-24.268l3.048-3.044a1.752 1.752 0 0 1 2.473 0l6.785 6.785a1.748 1.748 0 0 1 0 2.475l-2.9 2.9c-.371.885 2.189 5.643 5.623 9.076 3.412 3.413 8.135 5.971 9.1 5.6l2.876-2.876a1.734 1.734 0 0 1 1.237-.513 1.735 1.735 0 0 1 1.236.514l6.784 6.783a1.748 1.748 0 0 1 0 2.475l-3.045 3.041a6.81 6.81 0 0 1 -4.989 1.852zm-23.943-36.525-2.871 2.871c-3.07 3.071-.563 11.93 8.947 21.441s18.372 12.015 21.442 8.947l2.871-2.871-6.431-6.43-2.723 2.722c-1 1.005-2.873.7-5.721-.916a31.269 31.269 0 0 1 -6.183-4.707c-2.246-2.245-7.991-9.535-5.623-11.9l2.723-2.723z" fill="#f37b83" data-original="#000000" style="" class=""/><path d="m29.542 30.147a1 1 0 0 1 -.707-.293l-7.845-7.845a1 1 0 0 1 1.41-1.409l7.845 7.845a1 1 0 0 1 -.707 1.707z" fill="#f37b83" data-original="#000000" style="" class=""/><path d="m53.5 54.1a1 1 0 0 1 -.707-.292l-7.845-7.845a1 1 0 0 1 1.414-1.414l7.845 7.851a1 1 0 0 1 -.707 1.7z" fill="#f37b83" data-original="#000000" style="" class=""/></g></g></svg>
