<?xml version="1.0"?>
<svg xmlns="http://www.w3.org/2000/svg" xmlns:xlink="http://www.w3.org/1999/xlink" xmlns:svgjs="http://svgjs.com/svgjs" version="1.1" width="512" height="512" x="0" y="0" viewBox="0 0 512 512" style="enable-background:new 0 0 512 512" xml:space="preserve" class=""><g><g xmlns="http://www.w3.org/2000/svg"><path d="m338.132 400.517c-4.085-.685-7.949 2.083-8.628 6.169s2.083 7.949 6.169 8.628c56.232 9.345 81.844 26.126 81.844 37.763 0 18.34-61.447 43.923-161.517 43.923-37.182 0-72.293-3.635-101.539-10.51-4.031-.947-8.069 1.553-9.017 5.584-.948 4.032 1.552 8.069 5.584 9.018 30.354 7.137 66.653 10.908 104.972 10.908 45.865 0 89.084-5.465 121.696-15.387 35.864-10.911 54.821-25.967 54.821-43.537 0-23.434-34.402-42.592-94.385-52.559z" fill="#f37b83" data-original="#000000" style="" class=""/><path d="m123.004 476.74c-17.859-7.326-28.521-16.173-28.521-23.664 0-11.637 25.611-28.417 81.841-37.762 4.086-.679 6.848-4.542 6.169-8.628s-4.544-6.845-8.628-6.169c-26.943 4.478-49.724 11.131-65.879 19.241-18.914 9.495-28.503 20.705-28.503 33.317 0 18.203 20.571 30.462 37.827 37.541.932.383 1.896.563 2.844.563 2.953 0 5.752-1.755 6.942-4.655 1.572-3.831-.26-8.212-4.092-9.784z" fill="#f37b83" data-original="#000000" style="" class=""/><path d="m101.101 159.108c-4.059-.829-8.021 1.785-8.853 5.843-2.253 11.002-3.396 22.323-3.396 33.65 0 92.085 74.982 167.001 167.147 167.001s167.147-74.916 167.147-167.001-74.981-167.001-167.146-167.001c-66.32 0-126.414 39.207-153.098 99.884-1.667 3.792.054 8.218 3.846 9.885 3.79 1.67 8.216-.055 9.885-3.846 24.289-55.234 78.994-90.923 139.367-90.923 83.894 0 152.147 68.188 152.147 152.002 0 83.813-68.253 152.001-152.147 152.001s-152.147-68.188-152.147-152.001c0-10.318 1.04-20.627 3.091-30.641.831-4.058-1.785-8.022-5.843-8.853z" fill="#f37b83" data-original="#000000" style="" class=""/><path d="m185.295 384.269 65.404 65.344c1.464 1.463 3.382 2.194 5.301 2.194s3.837-.731 5.301-2.194l65.403-65.344c42.16-16.039 77.931-46.273 100.846-85.285 2.098-3.571.903-8.168-2.668-10.266-3.572-2.099-8.168-.903-10.266 2.668-21.45 36.518-55.073 64.715-94.674 79.399-1.012.375-1.93.964-2.693 1.727l-61.249 61.193-61.25-61.193c-.763-.763-1.682-1.352-2.693-1.727-34.814-12.909-64.608-35.812-86.162-66.229-22.028-31.089-33.671-67.727-33.671-105.955 0-101.238 82.442-183.601 183.776-183.601 25.713 0 50.582 5.199 73.917 15.453 3.792 1.668 8.217-.058 9.883-3.849 1.667-3.793-.057-8.218-3.849-9.884-25.248-11.094-52.148-16.72-79.951-16.72-109.605 0-198.776 89.093-198.776 198.602 0 41.353 12.598 80.989 36.433 114.627 22.985 32.439 54.647 56.976 91.638 71.04z" fill="#f37b83" data-original="#000000" style="" class=""/><path d="m366.997 33.824c-3.436-2.314-8.097-1.405-10.411 2.029-2.314 3.436-1.406 8.096 2.03 10.41 50.82 34.238 81.16 91.187 81.16 152.338 0 22.246-3.936 43.983-11.699 64.609-1.459 3.876.5 8.202 4.377 9.661.871.327 1.763.482 2.641.482 3.033 0 5.889-1.854 7.02-4.86 8.401-22.32 12.661-45.836 12.661-69.893 0-66.147-32.815-127.746-87.779-164.776z" fill="#f37b83" data-original="#000000" style="" class=""/><path d="m179.301 276.801h153.398c4.142 0 7.5-3.357 7.5-7.5v-88.009l8.375 6.552c1.372 1.073 3 1.593 4.616 1.593 2.228 0 4.434-.988 5.913-2.879 2.552-3.263 1.977-7.977-1.286-10.528l-97.196-76.034c-2.715-2.123-6.527-2.123-9.242 0l-97.196 76.034c-3.263 2.552-3.838 7.266-1.286 10.528 2.551 3.262 7.265 3.84 10.528 1.286l8.375-6.552v88.009c.001 4.142 3.359 7.5 7.501 7.5zm7.5-107.243 69.199-54.133 69.199 54.133v92.243h-138.398z" fill="#f37b83" data-original="#000000" style="" class=""/><path d="m221 190.746c-4.142 0-7.5 3.357-7.5 7.5v30.355c0 4.143 3.358 7.5 7.5 7.5s7.5-3.357 7.5-7.5v-30.355c0-4.142-3.358-7.5-7.5-7.5z" fill="#f37b83" data-original="#000000" style="" class=""/><path d="m256 190.746c-4.142 0-7.5 3.357-7.5 7.5v30.355c0 4.143 3.358 7.5 7.5 7.5s7.5-3.357 7.5-7.5v-30.355c0-4.142-3.358-7.5-7.5-7.5z" fill="#f37b83" data-original="#000000" style="" class=""/><path d="m291 190.746c-4.142 0-7.5 3.357-7.5 7.5v30.355c0 4.143 3.358 7.5 7.5 7.5s7.5-3.357 7.5-7.5v-30.355c0-4.142-3.358-7.5-7.5-7.5z" fill="#f37b83" data-original="#000000" style="" class=""/><path d="m256 145.517c-4.142 0-7.5 3.357-7.5 7.5v11.022c0 4.143 3.358 7.5 7.5 7.5s7.5-3.357 7.5-7.5v-11.022c0-4.143-3.358-7.5-7.5-7.5z" fill="#f37b83" data-original="#000000" style="" class=""/></g></g></svg>
