<?xml version="1.0"?>
<svg xmlns="http://www.w3.org/2000/svg" xmlns:xlink="http://www.w3.org/1999/xlink" xmlns:svgjs="http://svgjs.com/svgjs" version="1.1" width="512" height="512" x="0" y="0" viewBox="0 0 512 512" style="enable-background:new 0 0 512 512" xml:space="preserve" class=""><g><g xmlns="http://www.w3.org/2000/svg"><path d="m474.427 75.737h-251.133c-4.15 0-7.515 3.365-7.515 7.515s3.364 7.515 7.515 7.515h251.133c3.831 0 7.44.963 10.602 2.656l-119.814 104.84c-3.624-10.682-9.394-19.784-17.06-26.785-9.883-9.026-22.555-14.424-36.644-15.608-13.278-1.114-26.813 1.676-38.119 7.859-7.056 3.859-12.958 8.912-17.392 14.791-4.434-5.88-10.336-10.932-17.392-14.791-11.307-6.184-24.845-8.973-38.119-7.859-14.089 1.184-26.761 6.582-36.644 15.608-7.666 7.001-13.436 16.103-17.06 26.785l-119.814-104.841c3.162-1.693 6.771-2.656 10.602-2.656h155.661c4.15 0 7.515-3.364 7.515-7.515s-3.365-7.515-7.515-7.515h-155.661c-20.718.001-37.573 16.856-37.573 37.574v285.38c0 20.718 16.855 37.573 37.573 37.573h48.29c4.15 0 7.515-3.365 7.515-7.515s-3.365-7.515-7.515-7.515h-48.29c-12.431 0-22.544-10.113-22.544-22.544v-285.379c0-3.121.638-6.095 1.79-8.801l126.24 110.463c-4.061 34.051 13.667 69.166 51.375 101.648 28.082 24.19 57.061 38.4 58.28 38.993 1.037.504 2.161.756 3.286.756s2.249-.252 3.286-.756c1.152-.56 28.536-13.985 55.869-36.942 3.178-2.669 3.59-7.409.921-10.588-2.669-3.177-7.409-3.59-10.587-.921-20.519 17.234-41.55 29.039-49.482 33.239-18.334-9.743-106.715-60.303-97.895-124.782 3.562-26.038 19.875-42.775 43.637-44.773 21.623-1.815 41.865 9.363 47.081 26.007.982 3.135 3.886 5.268 7.171 5.268s6.188-2.133 7.171-5.268c5.216-16.644 25.462-27.826 47.081-26.007 23.762 1.997 40.075 18.735 43.637 44.773 3.205 23.43-6.062 47.487-27.543 71.501-2.767 3.093-2.502 7.844.591 10.611s7.844 2.503 10.611-.59c24.149-26.995 34.701-54.634 31.399-82.173l126.234-110.458c1.152 2.705 1.79 5.68 1.79 8.801v285.38c0 12.431-10.113 22.544-22.544 22.544h-358.506c-4.15 0-7.515 3.364-7.515 7.515s3.365 7.515 7.515 7.515h358.505c20.718 0 37.573-16.855 37.573-37.573v-285.382c0-20.718-16.855-37.573-37.573-37.573z" fill="#f37b83" data-original="#000000" style=""/><path d="m211.007 237.954v12.37c0 4.15 3.365 7.515 7.515 7.515s7.515-3.364 7.515-7.515v-12.37c0-4.15-3.365-7.515-7.515-7.515s-7.515 3.365-7.515 7.515z" fill="#f37b83" data-original="#000000" style=""/><path d="m285.963 237.954v12.37c0 4.15 3.365 7.515 7.515 7.515s7.515-3.364 7.515-7.515v-12.37c0-4.15-3.365-7.515-7.515-7.515s-7.515 3.365-7.515 7.515z" fill="#f37b83" data-original="#000000" style=""/><path d="m263.201 262.969c-.932 3.179-3.893 5.4-7.201 5.4-3.307 0-6.268-2.221-7.201-5.4-1.168-3.982-5.341-6.262-9.326-5.096-3.982 1.168-6.264 5.343-5.096 9.326 2.797 9.538 11.689 16.199 21.622 16.199s18.825-6.661 21.622-16.199c1.168-3.982-1.114-8.158-5.096-9.326-3.978-1.165-8.156 1.113-9.324 5.096z" fill="#f37b83" data-original="#000000" style=""/></g></g></svg>
